<svg xmlns="http://www.w3.org/2000/svg" width="89" height="107"><path fill="#00cd13" d="M71.449 94.914C66.827 84.313 56.305 77.12 44.329 77.12c-12.041 0-22.525 7.26-27.118 17.794a29.394 29.394 0 0 0-2.451 11.776H73.9c0-4.184-.877-8.166-2.451-11.776z"/><path fill="#b0ebd8" d="M44.33 77.12c-3.42 0-6.773.588-9.94 1.722v27.848h19.886V78.842a29.458 29.458 0 0 0-9.946-1.722z"/><path fill="#030303" d="M57.319 73.171l-25.982-.001a6.44 6.44 0 0 0-2.97 7.968c1.888 4.953 5.332 9.18 10.046 12.37.866.587 1.027 1.81.316 2.578a8.899 8.899 0 0 1-7.085 2.847c-2.223-.133-4.305-1.135-5.88-2.71l-10.43-10.43-4.554 4.554 10.542 10.542a15.265 15.265 0 0 0 10.865 4.5c5.691 0 10.667-3.112 13.321-7.722.727-1.261 1.74-2.337 2.987-3.088 5.295-3.19 9.447-7.291 11.792-13.44a6.44 6.44 0 0 0-2.968-7.967z"/><path fill="#222" d="M13.06 97.73a9.66 9.66 0 0 0 9.66-9.66 9.66 9.66 0 0 0-9.66-9.66 9.66 9.66 0 0 0-9.66 9.66 9.66 9.66 0 0 0 9.66 9.66z"/><path fill="#d4d4ff" d="M13.06 91.29a3.22 3.22 0 1 0 0-6.44 3.22 3.22 0 0 0 0 6.44z"/><path fill="#ffbf9d" d="M44.338 73.5l-9.948 5.341c1.746 4.579 5.244 8.21 9.948 10.725 4.704-2.515 8.192-6.147 9.938-10.725zM8.882 53.624a8.812 8.812 0 1 0 0-17.624 8.812 8.812 0 0 0 0 17.624zm70.89 0a8.812 8.812 0 1 0 0-17.624 8.812 8.812 0 0 0 0 17.624z"/><path fill="#ffd4bd" d="M54.261 78.836C69 74.539 79.77 60.93 79.77 44.806c0-17.575-12.79-32.162-29.57-34.961a35.684 35.684 0 0 0-5.876-.485C24.75 9.36 8.88 25.23 8.88 44.805c0 16.126 10.77 29.734 25.508 34.03a35.448 35.448 0 0 0 9.936 1.415 35.61 35.61 0 0 0 5.875-.486 35.26 35.26 0 0 0 4.062-.928z"/><path fill="#ffbf9d" d="M20.63 44.805c0-17.574 12.79-32.161 29.57-34.96a35.684 35.684 0 0 0-5.876-.485C24.75 9.36 8.88 25.23 8.88 44.805c0 19.575 15.87 35.445 35.444 35.445 2.002 0 3.964-.167 5.875-.486-16.779-2.8-29.57-17.385-29.57-34.959z"/><path fill="#ffbf9d" d="M25.004 62.485c3.896 0 7.054-2.515 7.054-5.618 0-3.102-3.158-5.617-7.054-5.617-3.896 0-7.054 2.515-7.054 5.617 0 3.103 3.158 5.618 7.054 5.618zm38.619 0c3.912 0 7.083-2.515 7.083-5.618 0-3.102-3.171-5.617-7.083-5.617-3.912 0-7.083 2.515-7.083 5.617 0 3.103 3.171 5.618 7.083 5.618z"/><path fill="#c77464" d="M73.308 14.1a16.65 16.65 0 0 0-11.736-2.584 31.17 31.17 0 0 0-1.571-1.904C48.43-3.338 29.108-2.63 17.874 8.304c-5.118 4.982-7.904 11.89-7.904 19.032v8.728c4.507-4.508 9.973-7.9 15.918-9.852a40.266 40.266 0 0 1 12.563-2.01h10.432l4.84 4.839c4.803 4.803 10.833 7.192 17.037 7.557.337 4.508 4.404 7.899 9.002 7.276V24.221c0-4.057-3.072-7.88-6.454-10.121z"/><path fill="#ac6757" d="M17.874 8.304c-5.118 4.982-7.904 11.89-7.904 19.032v8.728c4.507-4.508 9.986-7.905 15.93-9.857C32.142 16.113 43.296 9.39 56.036 9.39c1.341 0 2.664.077 3.966.222C48.43-3.338 29.108-2.63 17.874 8.304z"/><path fill="#676fb2" d="M81.6 40.088a3.663 3.663 0 0 0-5.003-1.341l-1.426.823c-.28-.774-.67-1.45-1.19-1.98-4.4-4.488-20.935-4.532-25.262.02a4.727 4.727 0 0 0-.811 1.185 6.456 6.456 0 0 0-3.579-1.09c-1.237 0-2.48.36-3.579 1.09l-2.35 3.19 2.559 4.025c.457-1.249 2.02-2.195 3.37-2.197 1.517.002 3.306 1.196 3.49 2.673v-.018c.73 2.68 2.12 5.527 3.997 6.879 4.034 2.906 15.944 3.046 19.979-.03 1.315-1.002 2.41-2.927 3.107-5.131l5.358-3.094a3.663 3.663 0 0 0 1.34-5.004z"/><path fill="#4c5699" d="M40.755 38.795a4.727 4.727 0 0 0-.812-1.184c-4.327-4.553-20.862-4.51-25.262-.02-.52.528-.91 1.205-1.19 1.98l-1.425-.824a3.664 3.664 0 0 0-3.664 6.345l5.359 3.094c.695 2.203 1.79 4.129 3.106 5.132 4.035 3.075 15.946 2.935 19.98.029 1.876-1.352 3.266-4.2 3.997-6.879l.014-.054c.036-.134.071-.268.105-.403.593-2.364.85-5.06-.208-7.216z"/><path fill="#b9f0ff" d="M35.83 43.727c-.358 2.088-1.341 4.546-2.196 5.162-2.178 1.57-11.46 1.613-13.434.06-.818-.643-1.59-3.273-1.733-5.373-.093-1.37.76-2.63 2.077-3.019 3.558-1.05 9.32-1.157 13.152-.133 1.454.39 2.389 1.82 2.134 3.303zm34.365-.151c-.143 2.1-.915 4.73-1.733 5.373-1.974 1.553-11.255 1.51-13.434-.06-.855-.616-1.838-3.074-2.196-5.162-.255-1.484.68-2.914 2.134-3.303 3.832-1.024 9.594-.918 13.152.133 1.316.389 2.17 1.65 2.077 3.019z"/><path fill="#313d40" d="M48.18 53.197a1.61 1.61 0 0 0-2.272.155c-.399.457-.973.72-1.577.72a2.092 2.092 0 0 1-1.577-.72 1.61 1.61 0 1 0-2.428 2.116 5.311 5.311 0 0 0 8.01 0 1.61 1.61 0 0 0-.157-2.271zm11.221-8.167h-.006a1.61 1.61 0 0 0-1.61 1.604l-.005 1.384a1.61 1.61 0 0 0 1.604 1.616h.006A1.61 1.61 0 0 0 61 48.03l.005-1.384a1.61 1.61 0 0 0-1.604-1.616zm-30.07-.13h-.006a1.61 1.61 0 0 0-1.61 1.604l-.005 1.384a1.61 1.61 0 0 0 1.604 1.616h.006a1.61 1.61 0 0 0 1.61-1.604l.005-1.384a1.61 1.61 0 0 0-1.604-1.616z"/></svg>