<svg xmlns="http://www.w3.org/2000/svg" width="90" height="85"><path fill="#0db91d" d="M31.807 42.357c0 2.283-1.968 4.135-4.397 4.135-2.427 0-4.396-1.852-4.396-4.135 0-2.284 1.969-4.135 4.396-4.135 2.43 0 4.397 1.85 4.397 4.135zm35.126 0c0 2.283-1.966 4.135-4.392 4.135s-4.392-1.852-4.392-4.135c0-2.284 1.966-4.135 4.392-4.135s4.392 1.85 4.392 4.135zm-17.558 0c0 2.283-1.968 4.135-4.397 4.135-2.428 0-4.397-1.852-4.397-4.135 0-2.284 1.969-4.135 4.397-4.135 2.429 0 4.397 1.85 4.397 4.135zM44.973.01C20.118.01 0 18.95 0 42.357c0 7.428 2.057 14.682 5.964 21.08L.17 80.381c-.404 1.181-.072 2.476.86 3.354.923.869 2.295 1.193 3.562.81l17.994-5.457c6.795 3.679 14.5 5.616 22.388 5.616 24.856 0 44.973-18.94 44.973-42.347C89.946 18.953 69.832.01 44.973.01z"/></svg>