<svg xmlns="http://www.w3.org/2000/svg" width="94" height="88"><path fill="#b28d5b" d="M89.785 79.71a8.163 8.163 0 0 1-8.162 8.163H8.163A8.163 8.163 0 0 1 0 79.71v-57.2h89.785z"/><path fill="#99774f" d="M89.795 51.106H59.179a8.164 8.164 0 0 0-8.164 8.163v.016a8.163 8.163 0 0 0 8.164 8.162h30.616a4.082 4.082 0 0 0 4.082-4.081v-8.178a4.082 4.082 0 0 0-4.082-4.082zM0 79.702c0 4.513 3.654 8.17 8.162 8.17h6.122V22.51H0z"/><path fill="#ffe77c" d="M63.262 59.274a3.062 3.062 0 0 1-3.061 3.064 3.062 3.062 0 0 1-3.061-3.064 3.062 3.062 0 0 1 3.06-3.064 3.063 3.063 0 0 1 3.062 3.064z"/><path fill="#cea05d" d="M83.664 32.726H10.203C4.568 32.726 0 28.158 0 22.523v-.02C0 16.868 4.568 12.3 10.203 12.3h73.46a6.122 6.122 0 0 1 6.122 6.122v8.182a6.122 6.122 0 0 1-6.121 6.122z"/><path fill="#00a30f" d="M56.231 3.177l7.022 19.33H16.32L49.603.95c2.41-1.562 5.647-.475 6.628 2.227z"/><path fill="#00cd13" d="M72.75 3.091l7.056 19.421H32.65L66.09.853c2.423-1.57 5.674-.477 6.66 2.238z"/><path fill="#99774f" d="M89.782 20.98v3.064H12.24a1.531 1.531 0 0 1 0-3.064h77.542z"/></svg>