<svg xmlns="http://www.w3.org/2000/svg" width="17" height="9"><path fill="#fff" d="M16.867 8.15a1.073 1.073 0 0 0-.057-.102c-.296-.489-.86-1.089-1.695-1.8l-.017-.016-.01-.008-.008-.008h-.009c-.378-.332-.618-.554-.718-.668-.184-.218-.225-.437-.125-.66.071-.168.337-.524.799-1.067.242-.288.434-.518.576-.692 1.023-1.249 1.467-2.047 1.33-2.395l-.052-.08c-.036-.05-.127-.094-.275-.135a1.518 1.518 0 0 0-.568-.02l-2.555.016a.36.36 0 0 0-.177.004l-.115.024-.045.02-.035.025a.383.383 0 0 0-.098.086.549.549 0 0 0-.088.142 12.848 12.848 0 0 1-.95 1.833c-.218.336-.42.628-.603.875a4.285 4.285 0 0 1-.461.546 3.14 3.14 0 0 1-.337.28c-.1.071-.178.101-.23.09a7.004 7.004 0 0 1-.152-.032.562.562 0 0 1-.2-.2.84.84 0 0 1-.101-.318 3.22 3.22 0 0 1-.031-.33 6.327 6.327 0 0 1 .004-.39c.006-.169.01-.283.01-.342 0-.207.003-.43.012-.672.01-.242.016-.433.023-.574.006-.142.008-.29.008-.448 0-.158-.01-.281-.03-.37a1.196 1.196 0 0 0-.094-.262.452.452 0 0 0-.181-.195 1.079 1.079 0 0 0-.298-.11A6.412 6.412 0 0 0 8.117.091c-1.1-.01-1.807.055-2.12.196-.125.06-.237.14-.337.244-.107.12-.122.185-.045.195.355.05.606.166.754.35l.053.098c.042.07.083.196.125.375.041.18.068.377.08.594.029.397.029.736 0 1.018-.03.283-.058.503-.085.66a1.24 1.24 0 0 1-.12.383 1.582 1.582 0 0 1-.106.179.148.148 0 0 1-.044.04.717.717 0 0 1-.24.042.591.591 0 0 1-.302-.115 2.071 2.071 0 0 1-.368-.313 4.217 4.217 0 0 1-.43-.558 9.507 9.507 0 0 1-.497-.847l-.142-.236a20.36 20.36 0 0 1-.363-.664 11.9 11.9 0 0 1-.408-.843.544.544 0 0 0-.213-.26L3.264.603a.626.626 0 0 0-.142-.07 1.007 1.007 0 0 0-.204-.052L.488.498C.239.498.07.55-.018.653l-.035.049a.245.245 0 0 0-.027.13c0 .06.018.133.053.22.355.766.74 1.504 1.158 2.215.417.711.779 1.284 1.086 1.718.308.435.621.845.94 1.23.32.386.532.633.635.741.104.11.185.19.244.245l.222.195c.142.13.35.287.625.468.275.182.58.361.914.538.334.176.723.32 1.166.432.444.11.876.156 1.296.134h1.02c.207-.016.363-.076.47-.18l.035-.04a.516.516 0 0 0 .067-.15.764.764 0 0 0 .03-.224 2.47 2.47 0 0 1 .058-.632c.045-.187.095-.328.151-.423a1.05 1.05 0 0 1 .342-.358.61.61 0 0 1 .07-.029c.143-.043.31-.001.502.127.192.127.373.285.541.472.169.187.371.398.608.631.237.234.443.407.62.521l.178.098c.119.065.272.125.462.18.189.054.354.067.496.04l2.271-.033c.225 0 .4-.034.523-.101.125-.068.198-.143.222-.224a.58.58 0 0 0 .005-.277.957.957 0 0 0-.063-.216z"/></svg>