<svg xmlns="http://www.w3.org/2000/svg" width="9" height="15"><path fill="#fff" d="M3.784 10.589C2.597 10.467 1.527 10.18.61 9.476c-.114-.087-.231-.171-.335-.27-.401-.378-.442-.81-.124-1.257.271-.382.727-.484 1.201-.265.092.042.18.096.263.153 1.708 1.152 4.055 1.184 5.77.051.169-.128.35-.232.561-.285.41-.103.79.044 1.01.396.251.401.248.793-.061 1.105a4.67 4.67 0 0 1-1.678 1.064c-.6.228-1.255.343-1.905.42.098.104.144.156.206.216.882.87 1.767 1.736 2.646 2.609.3.297.362.666.197 1.012-.18.378-.583.626-.98.6-.25-.017-.445-.14-.62-.312-.665-.657-1.343-1.302-1.995-1.972-.19-.195-.28-.158-.448.01-.67.677-1.35 1.344-2.034 2.006-.308.298-.673.351-1.03.181-.379-.18-.62-.56-.601-.941.013-.258.142-.455.322-.632.873-.856 1.743-1.714 2.614-2.57.058-.058.111-.118.195-.206z"/><path fill="#fff" d="M4.543 5.678c-1.054.004-1.9-.816-1.908-1.849a1.876 1.876 0 0 1 1.899-1.885c1.051 0 1.89.826 1.894 1.863a1.869 1.869 0 0 1-1.885 1.871zm3.859-1.823A3.842 3.842 0 0 0 4.549 0C2.41-.006.672 1.691.66 3.797.648 5.88 2.385 7.604 4.503 7.61c2.14.007 3.888-1.678 3.899-3.756z"/></svg>