<svg xmlns="http://www.w3.org/2000/svg" width="15" height="12"><path fill="#fff" d="M15.115 1.822a6.836 6.836 0 0 1-1.816.45c.653-.354 1.153-.915 1.39-1.583a6.792 6.792 0 0 1-2.01.696A3.315 3.315 0 0 0 10.373.48C8.626.48 7.21 1.762 7.21 3.343c0 .224.027.443.081.652-2.627-.12-4.957-1.26-6.517-2.992a2.64 2.64 0 0 0-.428 1.44c0 .993.559 1.87 1.407 2.383a3.417 3.417 0 0 1-1.433-.36v.036c0 1.387 1.09 2.544 2.537 2.808-.265.064-.545.1-.834.1-.204 0-.401-.018-.595-.053.403 1.138 1.57 1.966 2.953 1.989a6.777 6.777 0 0 1-3.927 1.223c-.255 0-.506-.014-.754-.039a9.627 9.627 0 0 0 4.847 1.288c5.817 0 8.997-4.363 8.997-8.146l-.01-.371a6.024 6.024 0 0 0 1.581-1.48z"/></svg>