<svg xmlns="http://www.w3.org/2000/svg" width="33" height="34"><path d="M26.215 23.51c-.395 1.116-1.963 2.041-3.214 2.312-.856.182-1.973.328-5.736-1.233-4.813-1.995-7.913-6.889-8.154-7.206-.232-.317-1.945-2.591-1.945-4.943 0-2.35 1.193-3.496 1.674-3.987.396-.404 1.049-.588 1.675-.588.203 0 .385.01.549.018.48.02.722.05 1.04.81.395.952 1.357 3.303 1.472 3.545.116.241.233.57.07.887-.154.327-.29.473-.531.751-.242.279-.47.492-.712.791-.221.26-.471.539-.193 1.02.279.471 1.24 2.042 2.657 3.304 1.829 1.628 3.31 2.149 3.841 2.37.395.164.866.125 1.155-.183.366-.395.819-1.05 1.28-1.696.327-.462.74-.52 1.174-.356.442.154 2.782 1.311 3.264 1.55.48.242.798.357.915.56.114.203.114 1.155-.28 2.273zM16.69.37h-.008C7.647.37.3 7.72.3 16.756c0 3.585 1.155 6.907 3.12 9.605l-2.043 6.087 6.299-2.013a16.244 16.244 0 0 0 9.014 2.707c9.035 0 16.382-7.35 16.382-16.386C33.072 7.721 25.725.37 16.69.37z"/></svg>