<svg xmlns="http://www.w3.org/2000/svg" width="29" height="29"><path d="M26.447 20.466c-.14-.107-.284-.218-.42-.327-.717-.577-1.481-1.11-2.22-1.625a169.2 169.2 0 0 1-.459-.32c-.946-.665-1.796-.988-2.6-.988-1.082 0-2.026.598-2.805 1.777-.345.523-.763.777-1.28.777-.304 0-.651-.087-1.03-.259-3.053-1.384-5.234-3.508-6.48-6.31-.604-1.355-.408-2.24.653-2.96.602-.41 1.723-1.17 1.644-2.628C11.36 5.947 7.708.967 6.169.4 5.517.161 4.833.16 4.131.396 2.36.99 1.092 2.035.459 3.416c-.611 1.334-.584 2.9.08 4.53 1.92 4.713 4.618 8.822 8.022 12.212 3.33 3.319 7.425 6.037 12.169 8.08.427.184.876.284 1.203.357.112.026.208.047.278.066.039.01.079.016.119.017h.037c2.231 0 4.91-2.039 5.733-4.363.72-2.035-.595-3.041-1.653-3.85z"/></svg>